<svg xmlns="http://www.w3.org/2000/svg" xmlns:xlink="http://www.w3.org/1999/xlink" width="1920" zoomAndPan="magnify" viewBox="0 0 1440 599.999999" height="800" preserveAspectRatio="xMidYMid meet" version="1.0"><defs><g/><clipPath id="a563f3a25a"><path d="M 38.039062 132.695312 L 372.539062 132.695312 L 372.539062 467.195312 L 38.039062 467.195312 Z M 38.039062 132.695312 " clip-rule="nonzero"/></clipPath><clipPath id="c282540611"><path d="M 205.339844 132.695312 C 112.941406 132.695312 38.039062 207.597656 38.039062 299.996094 C 38.039062 392.394531 112.941406 467.300781 205.339844 467.300781 C 297.738281 467.300781 372.644531 392.394531 372.644531 299.996094 C 372.644531 207.597656 297.738281 132.695312 205.339844 132.695312 Z M 205.339844 132.695312 " clip-rule="nonzero"/></clipPath><clipPath id="c9d955155d"><path d="M 65.085938 159.71875 L 345.601562 159.71875 L 345.601562 441 L 65.085938 441 Z M 65.085938 159.71875 " clip-rule="nonzero"/></clipPath><clipPath id="ab9019a3af"><path d="M 205.34375 159.71875 C 127.878906 159.71875 65.085938 222.523438 65.085938 300 C 65.085938 377.476562 127.878906 440.28125 205.34375 440.28125 C 282.804688 440.28125 345.601562 377.476562 345.601562 300 C 345.601562 222.523438 282.804688 159.71875 205.34375 159.71875 Z M 205.34375 159.71875 " clip-rule="nonzero"/></clipPath><clipPath id="712c7e7779"><path d="M 0.0859375 0.71875 L 280.601562 0.71875 L 280.601562 281.398438 L 0.0859375 281.398438 Z M 0.0859375 0.71875 " clip-rule="nonzero"/></clipPath><clipPath id="39cb077116"><path d="M 140.34375 0.71875 C 62.878906 0.71875 0.0859375 63.523438 0.0859375 141 C 0.0859375 218.476562 62.878906 281.28125 140.34375 281.28125 C 217.804688 281.28125 280.601562 218.476562 280.601562 141 C 280.601562 63.523438 217.804688 0.71875 140.34375 0.71875 Z M 140.34375 0.71875 " clip-rule="nonzero"/></clipPath><clipPath id="eb09bf4875"><rect x="0" width="281" y="0" height="282"/></clipPath><clipPath id="9ffd5097de"><path d="M 86.734375 181.390625 L 323.734375 181.390625 L 323.734375 418.390625 L 86.734375 418.390625 Z M 86.734375 181.390625 " clip-rule="nonzero"/></clipPath><clipPath id="826dca938a"><path d="M 205.339844 181.390625 C 139.835938 181.390625 86.734375 234.492188 86.734375 299.996094 C 86.734375 365.5 139.835938 418.601562 205.339844 418.601562 C 270.84375 418.601562 323.945312 365.5 323.945312 299.996094 C 323.945312 234.492188 270.84375 181.390625 205.339844 181.390625 Z M 205.339844 181.390625 " clip-rule="nonzero"/></clipPath><clipPath id="59df6676b9"><path d="M 0.726562 0.304688 L 106 0.304688 L 106 103.339844 L 0.726562 103.339844 Z M 0.726562 0.304688 " clip-rule="nonzero"/></clipPath><clipPath id="559ee58a69"><path d="M 53.34375 0.304688 C 24.285156 0.304688 0.726562 23.371094 0.726562 51.824219 C 0.726562 80.277344 24.285156 103.339844 53.34375 103.339844 C 82.402344 103.339844 105.960938 80.277344 105.960938 51.824219 C 105.960938 23.371094 82.402344 0.304688 53.34375 0.304688 Z M 53.34375 0.304688 " clip-rule="nonzero"/></clipPath><clipPath id="167738af22"><path d="M 0.726562 0.304688 L 106 0.304688 L 106 103.339844 L 0.726562 103.339844 Z M 0.726562 0.304688 " clip-rule="nonzero"/></clipPath><clipPath id="a1544b5337"><path d="M 53.34375 0.304688 C 24.285156 0.304688 0.726562 23.371094 0.726562 51.824219 C 0.726562 80.277344 24.285156 103.339844 53.34375 103.339844 C 82.402344 103.339844 105.960938 80.277344 105.960938 51.824219 C 105.960938 23.371094 82.402344 0.304688 53.34375 0.304688 Z M 53.34375 0.304688 " clip-rule="nonzero"/></clipPath><clipPath id="43eabb3ba3"><rect x="0" width="106" y="0" height="104"/></clipPath><clipPath id="ecd954543a"><path d="M 19.652344 18.835938 L 87.171875 18.835938 L 87.171875 84.808594 L 19.652344 84.808594 Z M 19.652344 18.835938 " clip-rule="nonzero"/></clipPath><clipPath id="b1eb25f28c"><path d="M 53.34375 18.835938 C 34.738281 18.835938 19.652344 33.605469 19.652344 51.824219 C 19.652344 70.039062 34.738281 84.808594 53.34375 84.808594 C 71.949219 84.808594 87.03125 70.039062 87.03125 51.824219 C 87.03125 33.605469 71.949219 18.835938 53.34375 18.835938 Z M 53.34375 18.835938 " clip-rule="nonzero"/></clipPath><clipPath id="ac9bc0b5e6"><path d="M 0.652344 0.835938 L 68 0.835938 L 68 66.808594 L 0.652344 66.808594 Z M 0.652344 0.835938 " clip-rule="nonzero"/></clipPath><clipPath id="ddfa4172a2"><path d="M 34.34375 0.835938 C 15.738281 0.835938 0.652344 15.605469 0.652344 33.824219 C 0.652344 52.039062 15.738281 66.808594 34.34375 66.808594 C 52.949219 66.808594 68.03125 52.039062 68.03125 33.824219 C 68.03125 15.605469 52.949219 0.835938 34.34375 0.835938 Z M 34.34375 0.835938 " clip-rule="nonzero"/></clipPath><clipPath id="ae7014cb5f"><rect x="0" width="69" y="0" height="67"/></clipPath><clipPath id="dfa5f1787b"><path d="M 39.003906 39.097656 L 67.746094 39.097656 L 67.746094 67.1875 L 39.003906 67.1875 Z M 39.003906 39.097656 " clip-rule="nonzero"/></clipPath><clipPath id="f3fb3d5025"><path d="M 53.34375 39.097656 C 45.421875 39.097656 39.003906 45.386719 39.003906 53.140625 C 39.003906 60.898438 45.421875 67.1875 53.34375 67.1875 C 61.261719 67.1875 67.683594 60.898438 67.683594 53.140625 C 67.683594 45.386719 61.261719 39.097656 53.34375 39.097656 Z M 53.34375 39.097656 " clip-rule="nonzero"/></clipPath><clipPath id="1229a35c13"><path d="M 0.00390625 0.0976562 L 28.746094 0.0976562 L 28.746094 28.1875 L 0.00390625 28.1875 Z M 0.00390625 0.0976562 " clip-rule="nonzero"/></clipPath><clipPath id="08d72dfbd4"><path d="M 14.34375 0.0976562 C 6.421875 0.0976562 0.00390625 6.386719 0.00390625 14.140625 C 0.00390625 21.898438 6.421875 28.1875 14.34375 28.1875 C 22.261719 28.1875 28.683594 21.898438 28.683594 14.140625 C 28.683594 6.386719 22.261719 0.0976562 14.34375 0.0976562 Z M 14.34375 0.0976562 " clip-rule="nonzero"/></clipPath><clipPath id="d6dd15c475"><rect x="0" width="29" y="0" height="29"/></clipPath><clipPath id="6f07a3831f"><path d="M 23.878906 75.15625 L 82.910156 75.15625 L 82.910156 118.457031 L 23.878906 118.457031 Z M 23.878906 75.15625 " clip-rule="nonzero"/></clipPath><clipPath id="37752144af"><path d="M 45.527344 75.15625 L 61.15625 75.15625 C 66.898438 75.15625 72.40625 77.4375 76.464844 81.5 C 80.527344 85.558594 82.808594 91.066406 82.808594 96.808594 C 82.808594 102.550781 80.527344 108.058594 76.464844 112.117188 C 72.40625 116.175781 66.898438 118.457031 61.15625 118.457031 L 45.527344 118.457031 C 39.785156 118.457031 34.28125 116.175781 30.21875 112.117188 C 26.160156 108.058594 23.878906 102.550781 23.878906 96.808594 C 23.878906 91.066406 26.160156 85.558594 30.21875 81.5 C 34.28125 77.4375 39.785156 75.15625 45.527344 75.15625 Z M 45.527344 75.15625 " clip-rule="nonzero"/></clipPath><clipPath id="a1a5aae528"><path d="M 0.878906 0.15625 L 59.910156 0.15625 L 59.910156 43.457031 L 0.878906 43.457031 Z M 0.878906 0.15625 " clip-rule="nonzero"/></clipPath><clipPath id="bf13add187"><path d="M 22.527344 0.15625 L 38.15625 0.15625 C 43.898438 0.15625 49.40625 2.4375 53.464844 6.5 C 57.527344 10.558594 59.808594 16.066406 59.808594 21.808594 C 59.808594 27.550781 57.527344 33.058594 53.464844 37.117188 C 49.40625 41.175781 43.898438 43.457031 38.15625 43.457031 L 22.527344 43.457031 C 16.785156 43.457031 11.28125 41.175781 7.21875 37.117188 C 3.160156 33.058594 0.878906 27.550781 0.878906 21.808594 C 0.878906 16.066406 3.160156 10.558594 7.21875 6.5 C 11.28125 2.4375 16.785156 0.15625 22.527344 0.15625 Z M 22.527344 0.15625 " clip-rule="nonzero"/></clipPath><clipPath id="e78889cd29"><rect x="0" width="60" y="0" height="44"/></clipPath><clipPath id="e710667b7a"><path d="M 39.003906 87.882812 L 67.683594 87.882812 L 67.683594 195.769531 L 39.003906 195.769531 Z M 39.003906 87.882812 " clip-rule="nonzero"/></clipPath><clipPath id="846dc6efe6"><path d="M 53.34375 87.882812 C 61.261719 87.882812 67.683594 94.304688 67.683594 102.226562 L 67.683594 181.355469 C 67.683594 189.273438 61.261719 195.695312 53.34375 195.695312 C 45.421875 195.695312 39.003906 189.273438 39.003906 181.355469 L 39.003906 102.226562 C 39.003906 94.304688 45.421875 87.882812 53.34375 87.882812 Z M 53.34375 87.882812 " clip-rule="nonzero"/></clipPath><clipPath id="7305389b27"><path d="M 0.00390625 0.882812 L 28.683594 0.882812 L 28.683594 108.769531 L 0.00390625 108.769531 Z M 0.00390625 0.882812 " clip-rule="nonzero"/></clipPath><clipPath id="ec163695ea"><path d="M 14.34375 0.882812 C 22.261719 0.882812 28.683594 7.304688 28.683594 15.226562 L 28.683594 94.355469 C 28.683594 102.273438 22.261719 108.695312 14.34375 108.695312 C 6.421875 108.695312 0.00390625 102.273438 0.00390625 94.355469 L 0.00390625 15.226562 C 0.00390625 7.304688 6.421875 0.882812 14.34375 0.882812 Z M 14.34375 0.882812 " clip-rule="nonzero"/></clipPath><clipPath id="b0e2e19241"><rect x="0" width="29" y="0" height="109"/></clipPath><clipPath id="fb9239b418"><path d="M 39.003906 87.894531 L 68 87.894531 L 68 195.925781 L 39.003906 195.925781 Z M 39.003906 87.894531 " clip-rule="nonzero"/></clipPath><clipPath id="ae075f7f5f"><path d="M 53.339844 87.894531 C 61.257812 87.894531 67.675781 94.3125 67.675781 102.230469 L 67.675781 181.335938 C 67.675781 189.253906 61.257812 195.671875 53.339844 195.671875 C 45.421875 195.671875 39.003906 189.253906 39.003906 181.335938 L 39.003906 102.230469 C 39.003906 94.3125 45.421875 87.894531 53.339844 87.894531 Z M 53.339844 87.894531 " clip-rule="nonzero"/></clipPath><clipPath id="296e34638d"><rect x="0" width="107" y="0" height="200"/></clipPath><clipPath id="5973ec5815"><rect x="0" width="348" y="0" height="297"/></clipPath><clipPath id="d34806b118"><rect x="0" width="657" y="0" height="298"/></clipPath></defs><g clip-path="url(#a563f3a25a)"><g clip-path="url(#c282540611)"><path stroke-linecap="butt" transform="matrix(0.75, 0, 0, 0.75, 38.037502, 132.694483)" fill="none" stroke-linejoin="miter" d="M 223.069799 0.00110582 C 99.871877 0.00110582 0.00208112 99.870902 0.00208112 223.068824 C 0.00208112 346.266746 99.871877 446.14175 223.069799 446.14175 C 346.267721 446.14175 446.142725 346.266746 446.142725 223.068824 C 446.142725 99.870902 346.267721 0.00110582 223.069799 0.00110582 Z M 223.069799 0.00110582 " stroke="#337598" stroke-width="10" stroke-opacity="1" stroke-miterlimit="4"/></g></g><g clip-path="url(#c9d955155d)"><g clip-path="url(#ab9019a3af)"><g transform="matrix(1, 0, 0, 1, 65, 159)"><g clip-path="url(#eb09bf4875)"><g clip-path="url(#712c7e7779)"><g clip-path="url(#39cb077116)"><path fill="#337598" d="M 0.0859375 0.71875 L 280.601562 0.71875 L 280.601562 281.234375 L 0.0859375 281.234375 Z M 0.0859375 0.71875 " fill-opacity="1" fill-rule="nonzero"/></g></g></g></g></g></g><g clip-path="url(#9ffd5097de)"><g clip-path="url(#826dca938a)"><path stroke-linecap="butt" transform="matrix(0.75, 0, 0, 0.75, 86.73275, 181.389739)" fill="none" stroke-linejoin="miter" d="M 158.142799 0.00118072 C 70.804253 0.00118072 0.00216691 70.803267 0.00216691 158.141812 C 0.00216691 245.480358 70.804253 316.282444 158.142799 316.282444 C 245.481344 316.282444 316.28343 245.480358 316.28343 158.141812 C 316.28343 70.803267 245.481344 0.00118072 158.142799 0.00118072 Z M 158.142799 0.00118072 " stroke="#ffffff" stroke-width="4" stroke-opacity="1" stroke-miterlimit="4"/></g></g><g transform="matrix(1, 0, 0, 1, 152, 202)"><g clip-path="url(#296e34638d)"><g clip-path="url(#59df6676b9)"><g clip-path="url(#559ee58a69)"><g transform="matrix(1, 0, 0, 1, 0, -0.000000000000056843)"><g clip-path="url(#43eabb3ba3)"><g clip-path="url(#167738af22)"><g clip-path="url(#a1544b5337)"><path fill="#ffffff" d="M 0.726562 0.304688 L 105.777344 0.304688 L 105.777344 103.339844 L 0.726562 103.339844 Z M 0.726562 0.304688 " fill-opacity="1" fill-rule="nonzero"/></g></g></g></g></g></g><g clip-path="url(#ecd954543a)"><g clip-path="url(#b1eb25f28c)"><g transform="matrix(1, 0, 0, 1, 19, 18)"><g clip-path="url(#ae7014cb5f)"><g clip-path="url(#ac9bc0b5e6)"><g clip-path="url(#ddfa4172a2)"><path fill="#337598" d="M 0.652344 0.835938 L 67.914062 0.835938 L 67.914062 66.808594 L 0.652344 66.808594 Z M 0.652344 0.835938 " fill-opacity="1" fill-rule="nonzero"/></g></g></g></g></g></g><g clip-path="url(#dfa5f1787b)"><g clip-path="url(#f3fb3d5025)"><g transform="matrix(1, 0, 0, 1, 39, 39)"><g clip-path="url(#d6dd15c475)"><g clip-path="url(#1229a35c13)"><g clip-path="url(#08d72dfbd4)"><path fill="#ffffff" d="M 0.00390625 0.0976562 L 28.636719 0.0976562 L 28.636719 28.1875 L 0.00390625 28.1875 Z M 0.00390625 0.0976562 " fill-opacity="1" fill-rule="nonzero"/></g></g></g></g></g></g><g clip-path="url(#6f07a3831f)"><g clip-path="url(#37752144af)"><g transform="matrix(1, 0, 0, 1, 23, 75)"><g clip-path="url(#e78889cd29)"><g clip-path="url(#a1a5aae528)"><g clip-path="url(#bf13add187)"><path fill="#337598" d="M 0.878906 0.15625 L 59.738281 0.15625 L 59.738281 43.457031 L 0.878906 43.457031 Z M 0.878906 0.15625 " fill-opacity="1" fill-rule="nonzero"/></g></g></g></g></g></g><g clip-path="url(#e710667b7a)"><g clip-path="url(#846dc6efe6)"><g transform="matrix(1, 0, 0, 1, 39, 87)"><g clip-path="url(#b0e2e19241)"><g clip-path="url(#7305389b27)"><g clip-path="url(#ec163695ea)"><path fill="#ffffff" d="M 0.00390625 0.882812 L 28.683594 0.882812 L 28.683594 108.660156 L 0.00390625 108.660156 Z M 0.00390625 0.882812 " fill-opacity="1" fill-rule="nonzero"/></g></g></g></g></g></g><g clip-path="url(#fb9239b418)"><g clip-path="url(#ae075f7f5f)"><path stroke-linecap="butt" transform="matrix(1.714918, 0, 0, 1.714918, 39.003078, 87.894901)" fill="none" stroke-linejoin="miter" d="M 8.360028 -0.000215743 C 12.977139 -0.000215743 16.719573 3.742218 16.719573 8.359329 L 16.719573 54.487163 C 16.719573 59.104274 12.977139 62.846708 8.360028 62.846708 C 3.742917 62.846708 0.000482728 59.104274 0.000482728 54.487163 L 0.000482728 8.359329 C 0.000482728 3.742218 3.742917 -0.000215743 8.360028 -0.000215743 Z M 8.360028 -0.000215743 " stroke="#337598" stroke-width="0.437339" stroke-opacity="1" stroke-miterlimit="4"/></g></g></g></g><g transform="matrix(1, 0, 0, 1, 382, 159)"><g clip-path="url(#5973ec5815)"><g fill="#2e5f8c" fill-opacity="1"><g transform="translate(0.829018, 233.314449)"><g><path d="M 105.890625 -5.359375 C 101.992188 -2.921875 97.242188 -1.054688 91.640625 0.234375 C 86.046875 1.535156 80.085938 2.1875 73.765625 2.1875 C 56.554688 2.1875 43.328125 -2.03125 34.078125 -10.46875 C 24.828125 -18.90625 20.203125 -31.484375 20.203125 -48.203125 L 20.203125 -92.5 L 0.96875 -92.5 L 0.96875 -127.078125 L 20.203125 -127.078125 L 20.203125 -161.40625 L 66.453125 -161.40625 L 66.453125 -127.078125 L 96.640625 -127.078125 L 96.640625 -92.5 L 66.453125 -92.5 L 66.453125 -48.6875 C 66.453125 -43.976562 67.707031 -40.285156 70.21875 -37.609375 C 72.738281 -34.929688 76.109375 -33.59375 80.328125 -33.59375 C 85.691406 -33.59375 90.398438 -34.972656 94.453125 -37.734375 Z M 105.890625 -5.359375 "/></g></g></g><g fill="#2e5f8c" fill-opacity="1"><g transform="translate(99.900473, 233.314449)"><g><path d="M 105.890625 -5.359375 C 101.992188 -2.921875 97.242188 -1.054688 91.640625 0.234375 C 86.046875 1.535156 80.085938 2.1875 73.765625 2.1875 C 56.554688 2.1875 43.328125 -2.03125 34.078125 -10.46875 C 24.828125 -18.90625 20.203125 -31.484375 20.203125 -48.203125 L 20.203125 -92.5 L 0.96875 -92.5 L 0.96875 -127.078125 L 20.203125 -127.078125 L 20.203125 -161.40625 L 66.453125 -161.40625 L 66.453125 -127.078125 L 96.640625 -127.078125 L 96.640625 -92.5 L 66.453125 -92.5 L 66.453125 -48.6875 C 66.453125 -43.976562 67.707031 -40.285156 70.21875 -37.609375 C 72.738281 -34.929688 76.109375 -33.59375 80.328125 -33.59375 C 85.691406 -33.59375 90.398438 -34.972656 94.453125 -37.734375 Z M 105.890625 -5.359375 "/></g></g></g><g fill="#2e5f8c" fill-opacity="1"><g transform="translate(201.649742, 233.314449)"><g><path d="M 71.078125 -134.140625 C 92.992188 -134.140625 109.710938 -129.144531 121.234375 -119.15625 C 132.753906 -109.175781 138.515625 -93.882812 138.515625 -73.28125 L 138.515625 0 L 95.421875 0 L 95.421875 -17.046875 C 88.773438 -4.222656 75.796875 2.1875 56.484375 2.1875 C 46.253906 2.1875 37.40625 0.40625 29.9375 -3.15625 C 22.476562 -6.726562 16.835938 -11.554688 13.015625 -17.640625 C 9.203125 -23.734375 7.296875 -30.675781 7.296875 -38.46875 C 7.296875 -50.957031 12.082031 -60.648438 21.65625 -67.546875 C 31.238281 -74.453125 46.007812 -77.90625 65.96875 -77.90625 L 92.265625 -77.90625 C 91.453125 -91.851562 82.117188 -98.828125 64.265625 -98.828125 C 57.941406 -98.828125 51.53125 -97.8125 45.03125 -95.78125 C 38.539062 -93.757812 33.023438 -90.960938 28.484375 -87.390625 L 12.90625 -118.796875 C 20.207031 -123.660156 29.09375 -127.429688 39.5625 -130.109375 C 50.03125 -132.796875 60.535156 -134.140625 71.078125 -134.140625 Z M 69.375 -27.015625 C 74.726562 -27.015625 79.429688 -28.3125 83.484375 -30.90625 C 87.546875 -33.507812 90.472656 -37.328125 92.265625 -42.359375 L 92.265625 -53.796875 L 72.296875 -53.796875 C 58.828125 -53.796875 52.09375 -49.332031 52.09375 -40.40625 C 52.09375 -36.351562 53.632812 -33.109375 56.71875 -30.671875 C 59.800781 -28.234375 64.019531 -27.015625 69.375 -27.015625 Z M 69.375 -27.015625 "/></g></g></g></g></g><g transform="matrix(1, 0, 0, 1, 738, 172)"><g clip-path="url(#d34806b118)"><g fill="#64b5f6" fill-opacity="1"><g transform="translate(0.594857, 235.4853)"><g><path d="M 140.953125 -180.625 L 140.953125 0 L 124.390625 0 L 124.390625 -25.3125 C 119.203125 -16.71875 112.347656 -10.144531 103.828125 -5.59375 C 95.304688 -1.050781 85.691406 1.21875 74.984375 1.21875 C 62.972656 1.21875 52.097656 -1.539062 42.359375 -7.0625 C 32.617188 -12.582031 24.988281 -20.289062 19.46875 -30.1875 C 13.957031 -40.082031 11.203125 -51.363281 11.203125 -64.03125 C 11.203125 -76.6875 13.957031 -87.960938 19.46875 -97.859375 C 24.988281 -107.765625 32.617188 -115.429688 42.359375 -120.859375 C 52.097656 -126.296875 62.972656 -129.015625 74.984375 -129.015625 C 85.367188 -129.015625 94.738281 -126.863281 103.09375 -122.5625 C 111.457031 -118.269531 118.316406 -111.984375 123.671875 -103.703125 L 123.671875 -180.625 Z M 76.4375 -14.125 C 85.363281 -14.125 93.4375 -16.191406 100.65625 -20.328125 C 107.882812 -24.460938 113.566406 -30.34375 117.703125 -37.96875 C 121.835938 -45.601562 123.90625 -54.289062 123.90625 -64.03125 C 123.90625 -73.757812 121.835938 -82.4375 117.703125 -90.0625 C 113.566406 -97.695312 107.882812 -103.582031 100.65625 -107.71875 C 93.4375 -111.851562 85.363281 -113.921875 76.4375 -113.921875 C 67.351562 -113.921875 59.195312 -111.851562 51.96875 -107.71875 C 44.75 -103.582031 39.066406 -97.695312 34.921875 -90.0625 C 30.785156 -82.4375 28.71875 -73.757812 28.71875 -64.03125 C 28.71875 -54.289062 30.785156 -45.601562 34.921875 -37.96875 C 39.066406 -30.34375 44.75 -24.460938 51.96875 -20.328125 C 59.195312 -16.191406 67.351562 -14.125 76.4375 -14.125 Z M 76.4375 -14.125 "/></g></g></g><g fill="#64b5f6" fill-opacity="1"><g transform="translate(149.08393, 235.4853)"><g><path d="M 24.09375 -128.046875 L 41.390625 -128.046875 L 41.390625 0 L 24.09375 0 Z M 32.859375 -156.046875 C 29.285156 -156.046875 26.28125 -157.257812 23.84375 -159.6875 C 21.414062 -162.125 20.203125 -165.046875 20.203125 -168.453125 C 20.203125 -171.703125 21.414062 -174.539062 23.84375 -176.96875 C 26.28125 -179.40625 29.285156 -180.625 32.859375 -180.625 C 36.429688 -180.625 39.429688 -179.445312 41.859375 -177.09375 C 44.296875 -174.75 45.515625 -171.953125 45.515625 -168.703125 C 45.515625 -165.128906 44.296875 -162.125 41.859375 -159.6875 C 39.429688 -157.257812 36.429688 -156.046875 32.859375 -156.046875 Z M 32.859375 -156.046875 "/></g></g></g><g fill="#64b5f6" fill-opacity="1"><g transform="translate(198.011515, 235.4853)"><g><path d="M 142.65625 -128.046875 L 142.65625 -15.578125 C 142.65625 6.171875 137.335938 22.273438 126.703125 32.734375 C 116.078125 43.203125 100.050781 48.4375 78.625 48.4375 C 66.78125 48.4375 55.539062 46.691406 44.90625 43.203125 C 34.28125 39.710938 25.640625 34.882812 18.984375 28.71875 L 27.75 15.578125 C 33.914062 21.097656 41.421875 25.398438 50.265625 28.484375 C 59.109375 31.566406 68.398438 33.109375 78.140625 33.109375 C 94.367188 33.109375 106.296875 29.332031 113.921875 21.78125 C 121.554688 14.238281 125.375 2.515625 125.375 -13.390625 L 125.375 -29.703125 C 120.019531 -21.585938 113 -15.421875 104.3125 -11.203125 C 95.632812 -6.984375 86.019531 -4.875 75.46875 -4.875 C 63.457031 -4.875 52.539062 -7.507812 42.71875 -12.78125 C 32.90625 -18.050781 25.195312 -25.429688 19.59375 -34.921875 C 14 -44.421875 11.203125 -55.175781 11.203125 -67.1875 C 11.203125 -79.195312 14 -89.90625 19.59375 -99.3125 C 25.195312 -108.726562 32.863281 -116.03125 42.59375 -121.21875 C 52.332031 -126.414062 63.289062 -129.015625 75.46875 -129.015625 C 86.34375 -129.015625 96.160156 -126.820312 104.921875 -122.4375 C 113.679688 -118.0625 120.738281 -111.738281 126.09375 -103.46875 L 126.09375 -128.046875 Z M 77.171875 -20.203125 C 86.421875 -20.203125 94.773438 -22.191406 102.234375 -26.171875 C 109.703125 -30.148438 115.503906 -35.707031 119.640625 -42.84375 C 123.785156 -49.988281 125.859375 -58.101562 125.859375 -67.1875 C 125.859375 -76.28125 123.785156 -84.351562 119.640625 -91.40625 C 115.503906 -98.46875 109.742188 -103.984375 102.359375 -107.953125 C 94.984375 -111.929688 86.585938 -113.921875 77.171875 -113.921875 C 67.921875 -113.921875 59.601562 -111.972656 52.21875 -108.078125 C 44.832031 -104.191406 39.066406 -98.675781 34.921875 -91.53125 C 30.785156 -84.394531 28.71875 -76.28125 28.71875 -67.1875 C 28.71875 -58.101562 30.785156 -49.988281 34.921875 -42.84375 C 39.066406 -35.707031 44.832031 -30.148438 52.21875 -26.171875 C 59.601562 -22.191406 67.921875 -20.203125 77.171875 -20.203125 Z M 77.171875 -20.203125 "/></g></g></g><g fill="#64b5f6" fill-opacity="1"><g transform="translate(348.448007, 235.4853)"><g><path d="M 24.09375 -128.046875 L 41.390625 -128.046875 L 41.390625 0 L 24.09375 0 Z M 32.859375 -156.046875 C 29.285156 -156.046875 26.28125 -157.257812 23.84375 -159.6875 C 21.414062 -162.125 20.203125 -165.046875 20.203125 -168.453125 C 20.203125 -171.703125 21.414062 -174.539062 23.84375 -176.96875 C 26.28125 -179.40625 29.285156 -180.625 32.859375 -180.625 C 36.429688 -180.625 39.429688 -179.445312 41.859375 -177.09375 C 44.296875 -174.75 45.515625 -171.953125 45.515625 -168.703125 C 45.515625 -165.128906 44.296875 -162.125 41.859375 -159.6875 C 39.429688 -157.257812 36.429688 -156.046875 32.859375 -156.046875 Z M 32.859375 -156.046875 "/></g></g></g><g fill="#64b5f6" fill-opacity="1"><g transform="translate(397.375592, 235.4853)"><g><path d="M 91.53125 -7.796875 C 88.28125 -4.867188 84.257812 -2.632812 79.46875 -1.09375 C 74.6875 0.445312 69.703125 1.21875 64.515625 1.21875 C 52.503906 1.21875 43.25 -2.023438 36.75 -8.515625 C 30.257812 -15.015625 27.015625 -24.1875 27.015625 -36.03125 L 27.015625 -113.4375 L 4.140625 -113.4375 L 4.140625 -128.046875 L 27.015625 -128.046875 L 27.015625 -156.046875 L 44.3125 -156.046875 L 44.3125 -128.046875 L 83.25 -128.046875 L 83.25 -113.4375 L 44.3125 -113.4375 L 44.3125 -37 C 44.3125 -29.375 46.21875 -23.570312 50.03125 -19.59375 C 53.84375 -15.613281 59.316406 -13.625 66.453125 -13.625 C 70.023438 -13.625 73.472656 -14.191406 76.796875 -15.328125 C 80.128906 -16.472656 83.015625 -18.097656 85.453125 -20.203125 Z M 91.53125 -7.796875 "/></g></g></g><g fill="#64b5f6" fill-opacity="1"><g transform="translate(479.652628, 235.4853)"><g><path d="M 68.890625 -129.015625 C 85.609375 -129.015625 98.429688 -124.835938 107.359375 -116.484375 C 116.285156 -108.128906 120.75 -95.753906 120.75 -79.359375 L 120.75 0 L 104.1875 0 L 104.1875 -19.96875 C 100.289062 -13.3125 94.566406 -8.113281 87.015625 -4.375 C 79.472656 -0.644531 70.507812 1.21875 60.125 1.21875 C 45.84375 1.21875 34.484375 -2.1875 26.046875 -9 C 17.609375 -15.820312 13.390625 -24.832031 13.390625 -36.03125 C 13.390625 -46.90625 17.320312 -55.664062 25.1875 -62.3125 C 33.0625 -68.96875 45.601562 -72.296875 62.8125 -72.296875 L 103.46875 -72.296875 L 103.46875 -80.09375 C 103.46875 -91.125 100.378906 -99.519531 94.203125 -105.28125 C 88.035156 -111.039062 79.03125 -113.921875 67.1875 -113.921875 C 59.070312 -113.921875 51.28125 -112.582031 43.8125 -109.90625 C 36.351562 -107.226562 29.945312 -103.535156 24.59375 -98.828125 L 16.796875 -111.734375 C 23.285156 -117.253906 31.070312 -121.515625 40.15625 -124.515625 C 49.25 -127.515625 58.828125 -129.015625 68.890625 -129.015625 Z M 62.8125 -12.421875 C 72.539062 -12.421875 80.894531 -14.648438 87.875 -19.109375 C 94.851562 -23.566406 100.050781 -30.019531 103.46875 -38.46875 L 103.46875 -59.40625 L 63.296875 -59.40625 C 41.390625 -59.40625 30.4375 -51.773438 30.4375 -36.515625 C 30.4375 -29.046875 33.273438 -23.160156 38.953125 -18.859375 C 44.628906 -14.566406 52.582031 -12.421875 62.8125 -12.421875 Z M 62.8125 -12.421875 "/></g></g></g><g fill="#64b5f6" fill-opacity="1"><g transform="translate(606.720162, 235.4853)"><g><path d="M 24.09375 -180.625 L 41.390625 -180.625 L 41.390625 0 L 24.09375 0 Z M 24.09375 -180.625 "/></g></g></g></g></g></svg>