<svg xmlns="http://www.w3.org/2000/svg" xmlns:xlink="http://www.w3.org/1999/xlink" width="1024" zoomAndPan="magnify" viewBox="0 0 768 767.999994" height="1024" preserveAspectRatio="xMidYMid meet" version="1.0"><defs><g/><clipPath id="7dd21c6130"><path d="M 37.742188 252.769531 L 207.699219 252.769531 L 207.699219 422.726562 L 37.742188 422.726562 Z M 37.742188 252.769531 " clip-rule="nonzero"/></clipPath><clipPath id="1107b3ca51"><path d="M 122.71875 252.769531 C 75.789062 252.769531 37.742188 290.816406 37.742188 337.75 C 37.742188 384.679688 75.789062 422.726562 122.71875 422.726562 C 169.652344 422.726562 207.699219 384.679688 207.699219 337.75 C 207.699219 290.816406 169.652344 252.769531 122.71875 252.769531 Z M 122.71875 252.769531 " clip-rule="nonzero"/></clipPath><clipPath id="ba0d7ad245"><path d="M 51.480469 266.496094 L 193.964844 266.496094 L 193.964844 409.535156 L 51.480469 409.535156 Z M 51.480469 266.496094 " clip-rule="nonzero"/></clipPath><clipPath id="98198767e9"><path d="M 122.722656 266.496094 C 83.375 266.496094 51.480469 298.398438 51.480469 337.75 C 51.480469 377.101562 83.375 409.003906 122.722656 409.003906 C 162.066406 409.003906 193.964844 377.101562 193.964844 337.75 C 193.964844 298.398438 162.066406 266.496094 122.722656 266.496094 Z M 122.722656 266.496094 " clip-rule="nonzero"/></clipPath><clipPath id="2dfc751a12"><path d="M 0.480469 0.496094 L 142.964844 0.496094 L 142.964844 143 L 0.480469 143 Z M 0.480469 0.496094 " clip-rule="nonzero"/></clipPath><clipPath id="bc35837527"><path d="M 71.722656 0.496094 C 32.375 0.496094 0.480469 32.398438 0.480469 71.75 C 0.480469 111.101562 32.375 143.003906 71.722656 143.003906 C 111.066406 143.003906 142.964844 111.101562 142.964844 71.75 C 142.964844 32.398438 111.066406 0.496094 71.722656 0.496094 Z M 71.722656 0.496094 " clip-rule="nonzero"/></clipPath><clipPath id="18533ccd1b"><rect x="0" width="143" y="0" height="144"/></clipPath><clipPath id="f1ff051873"><path d="M 51.480469 266.496094 L 193.980469 266.496094 L 193.980469 408.996094 L 51.480469 408.996094 Z M 51.480469 266.496094 " clip-rule="nonzero"/></clipPath><clipPath id="07eabf4909"><path d="M 122.71875 266.496094 C 83.375 266.496094 51.480469 298.394531 51.480469 337.746094 C 51.480469 377.097656 83.375 408.996094 122.71875 408.996094 C 162.0625 408.996094 193.957031 377.097656 193.957031 337.746094 C 193.957031 298.394531 162.0625 266.496094 122.71875 266.496094 Z M 122.71875 266.496094 " clip-rule="nonzero"/></clipPath><clipPath id="e4a0a27fe2"><path d="M 62.476562 277.503906 L 182.96875 277.503906 L 182.96875 397.996094 L 62.476562 397.996094 Z M 62.476562 277.503906 " clip-rule="nonzero"/></clipPath><clipPath id="5daab14603"><path d="M 122.722656 277.503906 C 89.449219 277.503906 62.476562 304.476562 62.476562 337.75 C 62.476562 371.023438 89.449219 397.996094 122.722656 397.996094 C 155.996094 397.996094 182.96875 371.023438 182.96875 337.75 C 182.96875 304.476562 155.996094 277.503906 122.722656 277.503906 Z M 122.722656 277.503906 " clip-rule="nonzero"/></clipPath><clipPath id="a3bae610dd"><path d="M 0.996094 0.128906 L 54.558594 0.128906 L 54.558594 52.460938 L 0.996094 52.460938 Z M 0.996094 0.128906 " clip-rule="nonzero"/></clipPath><clipPath id="d6ffe77b39"><path d="M 27.722656 0.128906 C 12.960938 0.128906 0.996094 11.84375 0.996094 26.296875 C 0.996094 40.746094 12.960938 52.460938 27.722656 52.460938 C 42.480469 52.460938 54.445312 40.746094 54.445312 26.296875 C 54.445312 11.84375 42.480469 0.128906 27.722656 0.128906 Z M 27.722656 0.128906 " clip-rule="nonzero"/></clipPath><clipPath id="8536ccef2d"><path d="M 0.996094 0.128906 L 54.519531 0.128906 L 54.519531 52.460938 L 0.996094 52.460938 Z M 0.996094 0.128906 " clip-rule="nonzero"/></clipPath><clipPath id="488eb0a790"><path d="M 27.722656 0.128906 C 12.960938 0.128906 0.996094 11.84375 0.996094 26.296875 C 0.996094 40.746094 12.960938 52.460938 27.722656 52.460938 C 42.480469 52.460938 54.445312 40.746094 54.445312 26.296875 C 54.445312 11.84375 42.480469 0.128906 27.722656 0.128906 Z M 27.722656 0.128906 " clip-rule="nonzero"/></clipPath><clipPath id="6ab64bf2a0"><rect x="0" width="55" y="0" height="53"/></clipPath><clipPath id="9ad2be0bff"><path d="M 10.609375 9.539062 L 44.90625 9.539062 L 44.90625 43.050781 L 10.609375 43.050781 Z M 10.609375 9.539062 " clip-rule="nonzero"/></clipPath><clipPath id="d04bee58ea"><path d="M 27.722656 9.539062 C 18.269531 9.539062 10.609375 17.042969 10.609375 26.296875 C 10.609375 35.546875 18.269531 43.050781 27.722656 43.050781 C 37.171875 43.050781 44.832031 35.546875 44.832031 26.296875 C 44.832031 17.042969 37.171875 9.539062 27.722656 9.539062 Z M 27.722656 9.539062 " clip-rule="nonzero"/></clipPath><clipPath id="fb4e8d93fc"><path d="M 0.609375 0.539062 L 34.90625 0.539062 L 34.90625 34.050781 L 0.609375 34.050781 Z M 0.609375 0.539062 " clip-rule="nonzero"/></clipPath><clipPath id="84536d28aa"><path d="M 17.722656 0.539062 C 8.269531 0.539062 0.609375 8.042969 0.609375 17.296875 C 0.609375 26.546875 8.269531 34.050781 17.722656 34.050781 C 27.171875 34.050781 34.832031 26.546875 34.832031 17.296875 C 34.832031 8.042969 27.171875 0.539062 17.722656 0.539062 Z M 17.722656 0.539062 " clip-rule="nonzero"/></clipPath><clipPath id="37044f4e2f"><rect x="0" width="35" y="0" height="35"/></clipPath><clipPath id="301f832a15"><path d="M 20.4375 19.832031 L 35.039062 19.832031 L 35.039062 34.097656 L 20.4375 34.097656 Z M 20.4375 19.832031 " clip-rule="nonzero"/></clipPath><clipPath id="4d58c8412f"><path d="M 27.722656 19.832031 C 23.699219 19.832031 20.4375 23.027344 20.4375 26.964844 C 20.4375 30.90625 23.699219 34.097656 27.722656 34.097656 C 31.746094 34.097656 35.003906 30.90625 35.003906 26.964844 C 35.003906 23.027344 31.746094 19.832031 27.722656 19.832031 Z M 27.722656 19.832031 " clip-rule="nonzero"/></clipPath><clipPath id="c798ab322f"><path d="M 0.4375 0.832031 L 15 0.832031 L 15 15.097656 L 0.4375 15.097656 Z M 0.4375 0.832031 " clip-rule="nonzero"/></clipPath><clipPath id="7963b52a56"><path d="M 7.722656 0.832031 C 3.699219 0.832031 0.4375 4.027344 0.4375 7.964844 C 0.4375 11.90625 3.699219 15.097656 7.722656 15.097656 C 11.746094 15.097656 15.003906 11.90625 15.003906 7.964844 C 15.003906 4.027344 11.746094 0.832031 7.722656 0.832031 Z M 7.722656 0.832031 " clip-rule="nonzero"/></clipPath><clipPath id="d204968a5e"><rect x="0" width="16" y="0" height="16"/></clipPath><clipPath id="529bf5bad8"><path d="M 12.753906 38.148438 L 42.738281 38.148438 L 42.738281 60.140625 L 12.753906 60.140625 Z M 12.753906 38.148438 " clip-rule="nonzero"/></clipPath><clipPath id="1d738d8c31"><path d="M 23.753906 38.148438 L 31.691406 38.148438 C 34.605469 38.148438 37.402344 39.304688 39.464844 41.367188 C 41.527344 43.429688 42.6875 46.226562 42.6875 49.144531 C 42.6875 52.0625 41.527344 54.859375 39.464844 56.921875 C 37.402344 58.984375 34.605469 60.140625 31.691406 60.140625 L 23.753906 60.140625 C 20.835938 60.140625 18.039062 58.984375 15.976562 56.921875 C 13.914062 54.859375 12.753906 52.0625 12.753906 49.144531 C 12.753906 46.226562 13.914062 43.429688 15.976562 41.367188 C 18.039062 39.304688 20.835938 38.148438 23.753906 38.148438 Z M 23.753906 38.148438 " clip-rule="nonzero"/></clipPath><clipPath id="afe8e03797"><path d="M 0.753906 0.148438 L 30.738281 0.148438 L 30.738281 22.140625 L 0.753906 22.140625 Z M 0.753906 0.148438 " clip-rule="nonzero"/></clipPath><clipPath id="ac75c56fd4"><path d="M 11.753906 0.148438 L 19.691406 0.148438 C 22.605469 0.148438 25.402344 1.304688 27.464844 3.367188 C 29.527344 5.429688 30.6875 8.226562 30.6875 11.144531 C 30.6875 14.0625 29.527344 16.859375 27.464844 18.921875 C 25.402344 20.984375 22.605469 22.140625 19.691406 22.140625 L 11.753906 22.140625 C 8.835938 22.140625 6.039062 20.984375 3.976562 18.921875 C 1.914062 16.859375 0.753906 14.0625 0.753906 11.144531 C 0.753906 8.226562 1.914062 5.429688 3.976562 3.367188 C 6.039062 1.304688 8.835938 0.148438 11.753906 0.148438 Z M 11.753906 0.148438 " clip-rule="nonzero"/></clipPath><clipPath id="1ba2b9a0d2"><rect x="0" width="31" y="0" height="23"/></clipPath><clipPath id="9e58b4f3bd"><path d="M 20.4375 44.613281 L 35.003906 44.613281 L 35.003906 99.410156 L 20.4375 99.410156 Z M 20.4375 44.613281 " clip-rule="nonzero"/></clipPath><clipPath id="dd8aa268f3"><path d="M 27.722656 44.613281 C 31.746094 44.613281 35.003906 47.875 35.003906 51.894531 L 35.003906 92.089844 C 35.003906 96.113281 31.746094 99.371094 27.722656 99.371094 C 23.699219 99.371094 20.4375 96.113281 20.4375 92.089844 L 20.4375 51.894531 C 20.4375 47.875 23.699219 44.613281 27.722656 44.613281 Z M 27.722656 44.613281 " clip-rule="nonzero"/></clipPath><clipPath id="034e3cb6cf"><path d="M 0.4375 0.613281 L 15.003906 0.613281 L 15.003906 55.410156 L 0.4375 55.410156 Z M 0.4375 0.613281 " clip-rule="nonzero"/></clipPath><clipPath id="0fe8b83b61"><path d="M 7.722656 0.613281 C 11.746094 0.613281 15.003906 3.875 15.003906 7.894531 L 15.003906 48.089844 C 15.003906 52.113281 11.746094 55.371094 7.722656 55.371094 C 3.699219 55.371094 0.4375 52.113281 0.4375 48.089844 L 0.4375 7.894531 C 0.4375 3.875 3.699219 0.613281 7.722656 0.613281 Z M 7.722656 0.613281 " clip-rule="nonzero"/></clipPath><clipPath id="7b77b69243"><rect x="0" width="16" y="0" height="56"/></clipPath><clipPath id="1505595571"><path d="M 20.4375 44.617188 L 35 44.617188 L 35 99.488281 L 20.4375 99.488281 Z M 20.4375 44.617188 " clip-rule="nonzero"/></clipPath><clipPath id="01c3aa1a47"><path d="M 27.71875 44.617188 C 31.742188 44.617188 35 47.878906 35 51.898438 L 35 92.078125 C 35 96.101562 31.742188 99.363281 27.71875 99.363281 C 23.699219 99.363281 20.4375 96.101562 20.4375 92.078125 L 20.4375 51.898438 C 20.4375 47.878906 23.699219 44.617188 27.71875 44.617188 Z M 27.71875 44.617188 " clip-rule="nonzero"/></clipPath><clipPath id="c2f1ad2992"><rect x="0" width="55" y="0" height="102"/></clipPath><clipPath id="315ffa2c9c"><rect x="0" width="178" y="0" height="151"/></clipPath></defs><g clip-path="url(#7dd21c6130)"><g clip-path="url(#1107b3ca51)"><path stroke-linecap="butt" transform="matrix(0.75, 0, 0, 0.75, 37.741506, 252.76993)" fill="none" stroke-linejoin="miter" d="M 113.302997 -0.000531524 C 50.730078 -0.000531524 0.000908437 50.728638 0.000908437 113.306766 C 0.000908437 175.879686 50.730078 226.608855 113.302997 226.608855 C 175.881125 226.608855 226.610295 175.879686 226.610295 113.306766 C 226.610295 50.728638 175.881125 -0.000531524 113.302997 -0.000531524 Z M 113.302997 -0.000531524 " stroke="#337598" stroke-width="10" stroke-opacity="1" stroke-miterlimit="4"/></g></g><g clip-path="url(#ba0d7ad245)"><g clip-path="url(#98198767e9)"><g transform="matrix(1, 0, 0, 1, 51, 266)"><g clip-path="url(#18533ccd1b)"><g clip-path="url(#2dfc751a12)"><g clip-path="url(#bc35837527)"><path fill="#337598" d="M 0.480469 0.496094 L 142.964844 0.496094 L 142.964844 142.980469 L 0.480469 142.980469 Z M 0.480469 0.496094 " fill-opacity="1" fill-rule="nonzero"/></g></g></g></g></g></g><g clip-path="url(#f1ff051873)"><g clip-path="url(#07eabf4909)"><path stroke-linecap="butt" transform="matrix(0.75, 0, 0, 0.75, 51.48036, 266.496307)" fill="none" stroke-linejoin="miter" d="M 94.984524 -0.000284085 C 42.526188 -0.000284085 0.000144396 42.530968 0.000144396 94.999721 C 0.000144396 147.468473 42.526188 189.999725 94.984524 189.999725 C 147.44286 189.999725 189.968904 147.468473 189.968904 94.999721 C 189.968904 42.530968 147.44286 -0.000284085 94.984524 -0.000284085 Z M 94.984524 -0.000284085 " stroke="#000000" stroke-width="0.1" stroke-opacity="1" stroke-miterlimit="4"/></g></g><g clip-path="url(#e4a0a27fe2)"><g clip-path="url(#5daab14603)"><path stroke-linecap="butt" transform="matrix(0.75, 0, 0, 0.75, 62.475439, 277.503873)" fill="none" stroke-linejoin="miter" d="M 80.329627 0.0000447742 C 35.965041 0.0000447742 0.00149786 35.963588 0.00149786 80.328174 C 0.00149786 124.692759 35.965041 160.656303 80.329627 160.656303 C 124.694212 160.656303 160.657756 124.692759 160.657756 80.328174 C 160.657756 35.963588 124.694212 0.0000447742 80.329627 0.0000447742 Z M 80.329627 0.0000447742 " stroke="#ffffff" stroke-width="4" stroke-opacity="1" stroke-miterlimit="4"/></g></g><g transform="matrix(1, 0, 0, 1, 95, 288)"><g clip-path="url(#c2f1ad2992)"><g clip-path="url(#a3bae610dd)"><g clip-path="url(#d6ffe77b39)"><g transform="matrix(1, 0, 0, 1, 0, -0.000000000000056843)"><g clip-path="url(#6ab64bf2a0)"><g clip-path="url(#8536ccef2d)"><g clip-path="url(#488eb0a790)"><path fill="#ffffff" d="M 0.996094 0.128906 L 54.355469 0.128906 L 54.355469 52.460938 L 0.996094 52.460938 Z M 0.996094 0.128906 " fill-opacity="1" fill-rule="nonzero"/></g></g></g></g></g></g><g clip-path="url(#9ad2be0bff)"><g clip-path="url(#d04bee58ea)"><g transform="matrix(1, 0, 0, 1, 10, 9)"><g clip-path="url(#37044f4e2f)"><g clip-path="url(#fb4e8d93fc)"><g clip-path="url(#84536d28aa)"><path fill="#337598" d="M 0.609375 0.539062 L 34.773438 0.539062 L 34.773438 34.050781 L 0.609375 34.050781 Z M 0.609375 0.539062 " fill-opacity="1" fill-rule="nonzero"/></g></g></g></g></g></g><g clip-path="url(#301f832a15)"><g clip-path="url(#4d58c8412f)"><g transform="matrix(1, 0, 0, 1, 20, 19)"><g clip-path="url(#d204968a5e)"><g clip-path="url(#c798ab322f)"><g clip-path="url(#7963b52a56)"><path fill="#ffffff" d="M 0.4375 0.832031 L 14.984375 0.832031 L 14.984375 15.097656 L 0.4375 15.097656 Z M 0.4375 0.832031 " fill-opacity="1" fill-rule="nonzero"/></g></g></g></g></g></g><g clip-path="url(#529bf5bad8)"><g clip-path="url(#1d738d8c31)"><g transform="matrix(1, 0, 0, 1, 12, 38)"><g clip-path="url(#1ba2b9a0d2)"><g clip-path="url(#afe8e03797)"><g clip-path="url(#ac75c56fd4)"><path fill="#337598" d="M 0.753906 0.148438 L 30.652344 0.148438 L 30.652344 22.140625 L 0.753906 22.140625 Z M 0.753906 0.148438 " fill-opacity="1" fill-rule="nonzero"/></g></g></g></g></g></g><g clip-path="url(#9e58b4f3bd)"><g clip-path="url(#dd8aa268f3)"><g transform="matrix(1, 0, 0, 1, 20, 44)"><g clip-path="url(#7b77b69243)"><g clip-path="url(#034e3cb6cf)"><g clip-path="url(#0fe8b83b61)"><path fill="#ffffff" d="M 0.4375 0.613281 L 15.003906 0.613281 L 15.003906 55.355469 L 0.4375 55.355469 Z M 0.4375 0.613281 " fill-opacity="1" fill-rule="nonzero"/></g></g></g></g></g></g><g clip-path="url(#1505595571)"><g clip-path="url(#01c3aa1a47)"><path stroke-linecap="butt" transform="matrix(0.871064, 0, 0, 0.871064, 20.437793, 44.617211)" fill="none" stroke-linejoin="miter" d="M 8.358695 -0.0000266827 C 12.977688 -0.0000266827 16.717727 3.744496 16.717727 8.359005 L 16.717727 54.486148 C 16.717727 59.105141 12.977688 62.849664 8.358695 62.849664 C 3.744187 62.849664 -0.000335966 59.105141 -0.000335966 54.486148 L -0.000335966 8.359005 C -0.000335966 3.744496 3.744187 -0.0000266827 8.358695 -0.0000266827 Z M 8.358695 -0.0000266827 " stroke="#337598" stroke-width="0.861016" stroke-opacity="1" stroke-miterlimit="4"/></g></g></g></g><g transform="matrix(1, 0, 0, 1, 212, 266)"><g clip-path="url(#315ffa2c9c)"><g fill="#2e5f8c" fill-opacity="1"><g transform="translate(0.872551, 118.639533)"><g><path d="M 53.796875 -2.71875 C 51.816406 -1.476562 49.40625 -0.53125 46.5625 0.125 C 43.71875 0.78125 40.6875 1.109375 37.46875 1.109375 C 28.726562 1.109375 22.007812 -1.03125 17.3125 -5.3125 C 12.613281 -9.601562 10.265625 -15.992188 10.265625 -24.484375 L 10.265625 -46.984375 L 0.5 -46.984375 L 0.5 -64.546875 L 10.265625 -64.546875 L 10.265625 -81.984375 L 33.765625 -81.984375 L 33.765625 -64.546875 L 49.09375 -64.546875 L 49.09375 -46.984375 L 33.765625 -46.984375 L 33.765625 -24.734375 C 33.765625 -22.335938 34.398438 -20.457031 35.671875 -19.09375 C 36.953125 -17.738281 38.664062 -17.0625 40.8125 -17.0625 C 43.53125 -17.0625 45.921875 -17.765625 47.984375 -19.171875 Z M 53.796875 -2.71875 "/></g></g></g><g fill="#2e5f8c" fill-opacity="1"><g transform="translate(51.194227, 118.639533)"><g><path d="M 53.796875 -2.71875 C 51.816406 -1.476562 49.40625 -0.53125 46.5625 0.125 C 43.71875 0.78125 40.6875 1.109375 37.46875 1.109375 C 28.726562 1.109375 22.007812 -1.03125 17.3125 -5.3125 C 12.613281 -9.601562 10.265625 -15.992188 10.265625 -24.484375 L 10.265625 -46.984375 L 0.5 -46.984375 L 0.5 -64.546875 L 10.265625 -64.546875 L 10.265625 -81.984375 L 33.765625 -81.984375 L 33.765625 -64.546875 L 49.09375 -64.546875 L 49.09375 -46.984375 L 33.765625 -46.984375 L 33.765625 -24.734375 C 33.765625 -22.335938 34.398438 -20.457031 35.671875 -19.09375 C 36.953125 -17.738281 38.664062 -17.0625 40.8125 -17.0625 C 43.53125 -17.0625 45.921875 -17.765625 47.984375 -19.171875 Z M 53.796875 -2.71875 "/></g></g></g><g fill="#2e5f8c" fill-opacity="1"><g transform="translate(102.876053, 118.639533)"><g><path d="M 36.109375 -68.140625 C 47.234375 -68.140625 55.722656 -65.601562 61.578125 -60.53125 C 67.429688 -55.457031 70.359375 -47.6875 70.359375 -37.21875 L 70.359375 0 L 48.46875 0 L 48.46875 -8.65625 C 45.09375 -2.144531 38.5 1.109375 28.6875 1.109375 C 23.488281 1.109375 18.992188 0.203125 15.203125 -1.609375 C 11.410156 -3.421875 8.546875 -5.875 6.609375 -8.96875 C 4.671875 -12.0625 3.703125 -15.582031 3.703125 -19.53125 C 3.703125 -25.882812 6.132812 -30.8125 11 -34.3125 C 15.863281 -37.8125 23.367188 -39.5625 33.515625 -39.5625 L 46.859375 -39.5625 C 46.453125 -46.65625 41.710938 -50.203125 32.640625 -50.203125 C 29.429688 -50.203125 26.175781 -49.6875 22.875 -48.65625 C 19.582031 -47.625 16.78125 -46.203125 14.46875 -44.390625 L 6.546875 -60.34375 C 10.265625 -62.8125 14.78125 -64.726562 20.09375 -66.09375 C 25.40625 -67.457031 30.742188 -68.140625 36.109375 -68.140625 Z M 35.234375 -13.71875 C 37.960938 -13.71875 40.351562 -14.378906 42.40625 -15.703125 C 44.46875 -17.023438 45.953125 -18.960938 46.859375 -21.515625 L 46.859375 -27.328125 L 36.71875 -27.328125 C 29.882812 -27.328125 26.46875 -25.0625 26.46875 -20.53125 C 26.46875 -18.46875 27.25 -16.816406 28.8125 -15.578125 C 30.375 -14.335938 32.515625 -13.71875 35.234375 -13.71875 Z M 35.234375 -13.71875 "/></g></g></g></g></g><g fill="#64b5f6" fill-opacity="1"><g transform="translate(393.312084, 385.663067)"><g><path d="M 71.59375 -91.75 L 71.59375 0 L 63.1875 0 L 63.1875 -12.859375 C 60.550781 -8.492188 57.066406 -5.15625 52.734375 -2.84375 C 48.410156 -0.53125 43.53125 0.625 38.09375 0.625 C 31.988281 0.625 26.460938 -0.773438 21.515625 -3.578125 C 16.566406 -6.390625 12.691406 -10.304688 9.890625 -15.328125 C 7.085938 -20.359375 5.6875 -26.085938 5.6875 -32.515625 C 5.6875 -38.953125 7.085938 -44.679688 9.890625 -49.703125 C 12.691406 -54.734375 16.566406 -58.628906 21.515625 -61.390625 C 26.460938 -64.148438 31.988281 -65.53125 38.09375 -65.53125 C 43.363281 -65.53125 48.117188 -64.4375 52.359375 -62.25 C 56.609375 -60.070312 60.09375 -56.878906 62.8125 -52.671875 L 62.8125 -91.75 Z M 38.828125 -7.171875 C 43.359375 -7.171875 47.457031 -8.222656 51.125 -10.328125 C 54.800781 -12.429688 57.6875 -15.421875 59.78125 -19.296875 C 61.882812 -23.171875 62.9375 -27.578125 62.9375 -32.515625 C 62.9375 -37.460938 61.882812 -41.875 59.78125 -45.75 C 57.6875 -49.625 54.800781 -52.613281 51.125 -54.71875 C 47.457031 -56.820312 43.359375 -57.875 38.828125 -57.875 C 34.210938 -57.875 30.066406 -56.820312 26.390625 -54.71875 C 22.722656 -52.613281 19.835938 -49.625 17.734375 -45.75 C 15.640625 -41.875 14.59375 -37.460938 14.59375 -32.515625 C 14.59375 -27.578125 15.640625 -23.171875 17.734375 -19.296875 C 19.835938 -15.421875 22.722656 -12.429688 26.390625 -10.328125 C 30.066406 -8.222656 34.210938 -7.171875 38.828125 -7.171875 Z M 38.828125 -7.171875 "/></g></g></g><g fill="#64b5f6" fill-opacity="1"><g transform="translate(468.734608, 385.663067)"><g><path d="M 12.234375 -65.046875 L 21.015625 -65.046875 L 21.015625 0 L 12.234375 0 Z M 16.703125 -79.265625 C 14.890625 -79.265625 13.363281 -79.878906 12.125 -81.109375 C 10.882812 -82.347656 10.265625 -83.832031 10.265625 -85.5625 C 10.265625 -87.21875 10.882812 -88.660156 12.125 -89.890625 C 13.363281 -91.128906 14.890625 -91.75 16.703125 -91.75 C 18.515625 -91.75 20.035156 -91.148438 21.265625 -89.953125 C 22.503906 -88.765625 23.125 -87.34375 23.125 -85.6875 C 23.125 -83.875 22.503906 -82.347656 21.265625 -81.109375 C 20.035156 -79.878906 18.515625 -79.265625 16.703125 -79.265625 Z M 16.703125 -79.265625 "/></g></g></g><g fill="#64b5f6" fill-opacity="1"><g transform="translate(493.58655, 385.663067)"><g><path d="M 72.46875 -65.046875 L 72.46875 -7.90625 C 72.46875 3.132812 69.765625 11.3125 64.359375 16.625 C 58.960938 21.945312 50.820312 24.609375 39.9375 24.609375 C 33.925781 24.609375 28.21875 23.722656 22.8125 21.953125 C 17.414062 20.179688 13.023438 17.726562 9.640625 14.59375 L 14.09375 7.90625 C 17.226562 10.71875 21.039062 12.90625 25.53125 14.46875 C 30.03125 16.03125 34.75 16.8125 39.6875 16.8125 C 47.9375 16.8125 54 14.894531 57.875 11.0625 C 61.75 7.226562 63.6875 1.273438 63.6875 -6.796875 L 63.6875 -15.09375 C 60.96875 -10.96875 57.398438 -7.832031 52.984375 -5.6875 C 48.578125 -3.539062 43.691406 -2.46875 38.328125 -2.46875 C 32.234375 -2.46875 26.691406 -3.804688 21.703125 -6.484375 C 16.710938 -9.171875 12.796875 -12.925781 9.953125 -17.75 C 7.109375 -22.570312 5.6875 -28.03125 5.6875 -34.125 C 5.6875 -40.226562 7.109375 -45.671875 9.953125 -50.453125 C 12.796875 -55.234375 16.691406 -58.941406 21.640625 -61.578125 C 26.585938 -64.210938 32.148438 -65.53125 38.328125 -65.53125 C 43.859375 -65.53125 48.847656 -64.414062 53.296875 -62.1875 C 57.742188 -59.96875 61.328125 -56.753906 64.046875 -52.546875 L 64.046875 -65.046875 Z M 39.203125 -10.265625 C 43.898438 -10.265625 48.144531 -11.273438 51.9375 -13.296875 C 55.726562 -15.316406 58.675781 -18.140625 60.78125 -21.765625 C 62.882812 -25.390625 63.9375 -29.507812 63.9375 -34.125 C 63.9375 -38.738281 62.882812 -42.835938 60.78125 -46.421875 C 58.675781 -50.015625 55.75 -52.820312 52 -54.84375 C 48.25 -56.863281 43.984375 -57.875 39.203125 -57.875 C 34.503906 -57.875 30.273438 -56.882812 26.515625 -54.90625 C 22.765625 -52.925781 19.835938 -50.117188 17.734375 -46.484375 C 15.640625 -42.859375 14.59375 -38.738281 14.59375 -34.125 C 14.59375 -29.507812 15.640625 -25.390625 17.734375 -21.765625 C 19.835938 -18.140625 22.765625 -15.316406 26.515625 -13.296875 C 30.273438 -11.273438 34.503906 -10.265625 39.203125 -10.265625 Z M 39.203125 -10.265625 "/></g></g></g><g fill="#64b5f6" fill-opacity="1"><g transform="translate(569.998232, 385.663067)"><g><path d="M 12.234375 -65.046875 L 21.015625 -65.046875 L 21.015625 0 L 12.234375 0 Z M 16.703125 -79.265625 C 14.890625 -79.265625 13.363281 -79.878906 12.125 -81.109375 C 10.882812 -82.347656 10.265625 -83.832031 10.265625 -85.5625 C 10.265625 -87.21875 10.882812 -88.660156 12.125 -89.890625 C 13.363281 -91.128906 14.890625 -91.75 16.703125 -91.75 C 18.515625 -91.75 20.035156 -91.148438 21.265625 -89.953125 C 22.503906 -88.765625 23.125 -87.34375 23.125 -85.6875 C 23.125 -83.875 22.503906 -82.347656 21.265625 -81.109375 C 20.035156 -79.878906 18.515625 -79.265625 16.703125 -79.265625 Z M 16.703125 -79.265625 "/></g></g></g><g fill="#64b5f6" fill-opacity="1"><g transform="translate(594.850175, 385.663067)"><g><path d="M 46.5 -3.953125 C 44.84375 -2.472656 42.796875 -1.335938 40.359375 -0.546875 C 37.929688 0.234375 35.398438 0.625 32.765625 0.625 C 26.671875 0.625 21.972656 -1.023438 18.671875 -4.328125 C 15.367188 -7.628906 13.71875 -12.285156 13.71875 -18.296875 L 13.71875 -57.625 L 2.109375 -57.625 L 2.109375 -65.046875 L 13.71875 -65.046875 L 13.71875 -79.265625 L 22.5 -79.265625 L 22.5 -65.046875 L 42.296875 -65.046875 L 42.296875 -57.625 L 22.5 -57.625 L 22.5 -18.796875 C 22.5 -14.921875 23.46875 -11.972656 25.40625 -9.953125 C 27.34375 -7.929688 30.128906 -6.921875 33.765625 -6.921875 C 35.578125 -6.921875 37.328125 -7.207031 39.015625 -7.78125 C 40.703125 -8.363281 42.164062 -9.191406 43.40625 -10.265625 Z M 46.5 -3.953125 "/></g></g></g><g fill="#64b5f6" fill-opacity="1"><g transform="translate(636.64141, 385.663067)"><g><path d="M 35 -65.53125 C 43.488281 -65.53125 50 -63.40625 54.53125 -59.15625 C 59.0625 -54.914062 61.328125 -48.632812 61.328125 -40.3125 L 61.328125 0 L 52.921875 0 L 52.921875 -10.140625 C 50.941406 -6.753906 48.035156 -4.113281 44.203125 -2.21875 C 40.367188 -0.320312 35.816406 0.625 30.546875 0.625 C 23.285156 0.625 17.507812 -1.101562 13.21875 -4.5625 C 8.9375 -8.03125 6.796875 -12.609375 6.796875 -18.296875 C 6.796875 -23.828125 8.796875 -28.28125 12.796875 -31.65625 C 16.796875 -35.03125 23.164062 -36.71875 31.90625 -36.71875 L 52.546875 -36.71875 L 52.546875 -40.6875 C 52.546875 -46.289062 50.976562 -50.554688 47.84375 -53.484375 C 44.71875 -56.410156 40.144531 -57.875 34.125 -57.875 C 30.007812 -57.875 26.050781 -57.191406 22.25 -55.828125 C 18.457031 -54.472656 15.203125 -52.597656 12.484375 -50.203125 L 8.53125 -56.765625 C 11.832031 -59.566406 15.789062 -61.726562 20.40625 -63.25 C 25.019531 -64.769531 29.882812 -65.53125 35 -65.53125 Z M 31.90625 -6.3125 C 36.851562 -6.3125 41.097656 -7.441406 44.640625 -9.703125 C 48.179688 -11.972656 50.816406 -15.25 52.546875 -19.53125 L 52.546875 -30.171875 L 32.15625 -30.171875 C 21.019531 -30.171875 15.453125 -26.296875 15.453125 -18.546875 C 15.453125 -14.753906 16.894531 -11.765625 19.78125 -9.578125 C 22.664062 -7.398438 26.707031 -6.3125 31.90625 -6.3125 Z M 31.90625 -6.3125 "/></g></g></g><g fill="#64b5f6" fill-opacity="1"><g transform="translate(701.183223, 385.663067)"><g><path d="M 12.234375 -91.75 L 21.015625 -91.75 L 21.015625 0 L 12.234375 0 Z M 12.234375 -91.75 "/></g></g></g></svg>
